<svg width="900" height="600" viewBox="0 0 900 600" fill="none" xmlns="http://www.w3.org/2000/svg">
<rect width="900" height="600" rx="34" fill="#0B132B"/>
<circle cx="760" cy="88" r="130" fill="#58E6D9" opacity=".16"/>
<circle cx="120" cy="520" r="170" fill="#F6C85F" opacity=".10"/>
<rect x="54" y="48" width="792" height="504" rx="26" fill="#111D3A" stroke="#263657"/>
<rect x="86" y="82" width="214" height="108" rx="18" fill="#172646"/>
<text x="112" y="121" fill="#9EB2C7" font-size="18" font-family="Inter, Arial">On-time routes</text>
<text x="112" y="164" fill="white" font-size="42" font-weight="800" font-family="Inter, Arial">94.8%</text>
<rect x="326" y="82" width="214" height="108" rx="18" fill="#172646"/>
<text x="352" y="121" fill="#9EB2C7" font-size="18" font-family="Inter, Arial">Data refresh</text>
<text x="352" y="164" fill="white" font-size="42" font-weight="800" font-family="Inter, Arial">12m</text>
<rect x="566" y="82" width="214" height="108" rx="18" fill="#172646"/>
<text x="592" y="121" fill="#9EB2C7" font-size="18" font-family="Inter, Arial">Open items</text>
<text x="592" y="164" fill="white" font-size="42" font-weight="800" font-family="Inter, Arial">37</text>
<rect x="86" y="226" width="454" height="264" rx="22" fill="#172646"/>
<polyline points="120,432 174,384 228,405 282,318 336,342 390,275 444,292 500,246" fill="none" stroke="#58E6D9" stroke-width="7" stroke-linecap="round" stroke-linejoin="round"/>
<polyline points="120,455 174,438 228,444 282,399 336,412 390,370 444,382 500,352" fill="none" stroke="#F6C85F" stroke-width="5" stroke-linecap="round" stroke-linejoin="round" opacity=".8"/>
<line x1="120" y1="455" x2="504" y2="455" stroke="#33476B"/>
<line x1="120" y1="390" x2="504" y2="390" stroke="#33476B"/>
<line x1="120" y1="325" x2="504" y2="325" stroke="#33476B"/>
<line x1="120" y1="260" x2="504" y2="260" stroke="#33476B"/>
<rect x="566" y="226" width="214" height="264" rx="22" fill="#172646"/>
<circle cx="673" cy="356" r="73" stroke="#33476B" stroke-width="28"/>
<path d="M673 283a73 73 0 1 1-63 110" stroke="#58E6D9" stroke-width="28" stroke-linecap="round"/>
<text x="641" y="366" fill="white" font-size="34" font-weight="800" font-family="Inter, Arial">72%</text>
</svg>
